<?xml version="1.0" encoding="UTF-8" standalone="no"?>
<!DOCTYPE svg PUBLIC "-//W3C//DTD SVG 1.1//EN"
 "http://www.w3.org/Graphics/SVG/1.1/DTD/svg11.dtd">
<!-- Generated by graphviz version 2.47.0 (20210316.0004)
 -->
<!-- Title: dependencies Pages: 1 -->
<svg width="3351pt" height="363pt"
 viewBox="0.00 0.00 3351.00 363.00" xmlns="http://www.w3.org/2000/svg" xmlns:xlink="http://www.w3.org/1999/xlink">
<g id="graph0" class="graph" transform="scale(1 1) rotate(0) translate(4 359)">
<title>dependencies</title>
<polygon fill="white" stroke="transparent" points="-4,4 -4,-359 3347,-359 3347,4 -4,4"/>
<text text-anchor="start" x="1650.51" y="-42.4" font-family="Times-12" font-weight="bold" font-size="14.00">Legend</text>
<polygon fill="#ffffb3" stroke="transparent" points="1437.5,-10 1437.5,-30 1457.5,-30 1457.5,-10 1437.5,-10"/>
<text text-anchor="start" x="1461.13" y="-15.4" font-family="Times-12" font-size="14.00"> &#160;Declarations</text>
<polygon fill="#8dd3c7" stroke="transparent" points="1550.5,-10 1550.5,-30 1570.5,-30 1570.5,-10 1550.5,-10"/>
<text text-anchor="start" x="1574.23" y="-15.4" font-family="Times-12" font-size="14.00"> &#160;Module</text>
<polygon fill="#80b1d3" stroke="transparent" points="1636.5,-10 1636.5,-30 1656.5,-30 1656.5,-10 1636.5,-10"/>
<text text-anchor="start" x="1660.28" y="-15.4" font-family="Times-12" font-size="14.00"> &#160;Bootstrap</text>
<polygon fill="#fdb462" stroke="transparent" points="1733.5,-10 1733.5,-30 1753.5,-30 1753.5,-10 1733.5,-10"/>
<text text-anchor="start" x="1757.17" y="-15.4" font-family="Times-12" font-size="14.00"> &#160;Providers</text>
<polygon fill="#fb8072" stroke="transparent" points="1829.5,-10 1829.5,-30 1849.5,-30 1849.5,-10 1829.5,-10"/>
<text text-anchor="start" x="1853.23" y="-15.4" font-family="Times-12" font-size="14.00"> &#160;Exports</text>
<g id="clust1" class="cluster">
<title>cluster_AppModule</title>
<polygon fill="none" stroke="black" stroke-dasharray="1,5" points="560,-146 560,-347 1933,-347 1933,-146 560,-146"/>
</g>
<g id="clust3" class="cluster">
<title>cluster_AppModule_imports</title>
<polygon fill="none" stroke="black" points="706,-154 706,-282 1925,-282 1925,-154 706,-154"/>
</g>
<g id="clust6" class="cluster">
<title>cluster_AppModule_providers</title>
<polygon fill="none" stroke="black" points="568,-230 568,-282 698,-282 698,-230 568,-230"/>
</g>
<g id="clust7" class="cluster">
<title>cluster_AuthModule</title>
<polygon fill="none" stroke="black" stroke-dasharray="1,5" points="8,-146 8,-214 552,-214 552,-146 8,-146"/>
</g>
<g id="clust10" class="cluster">
<title>cluster_AuthModule_exports</title>
<polygon fill="none" stroke="black" points="438,-154 438,-206 544,-206 544,-154 438,-154"/>
</g>
<g id="clust12" class="cluster">
<title>cluster_AuthModule_providers</title>
<polygon fill="none" stroke="black" points="16,-154 16,-206 430,-206 430,-154 16,-154"/>
</g>
<g id="clust13" class="cluster">
<title>cluster_CompaniesModule</title>
<polygon fill="none" stroke="black" stroke-dasharray="1,5" points="1941,-222 1941,-290 2287,-290 2287,-222 1941,-222"/>
</g>
<g id="clust16" class="cluster">
<title>cluster_CompaniesModule_exports</title>
<polygon fill="none" stroke="black" points="2139,-230 2139,-282 2279,-282 2279,-230 2139,-230"/>
</g>
<g id="clust18" class="cluster">
<title>cluster_CompaniesModule_providers</title>
<polygon fill="none" stroke="black" points="1949,-230 1949,-282 2131,-282 2131,-230 1949,-230"/>
</g>
<g id="clust19" class="cluster">
<title>cluster_DatabasesModule</title>
<polygon fill="none" stroke="black" stroke-dasharray="1,5" points="587,-70 587,-138 919,-138 919,-70 587,-70"/>
</g>
<g id="clust24" class="cluster">
<title>cluster_DatabasesModule_providers</title>
<polygon fill="none" stroke="black" points="595,-78 595,-130 911,-130 911,-78 595,-78"/>
</g>
<g id="clust25" class="cluster">
<title>cluster_FilesModule</title>
<polygon fill="none" stroke="black" stroke-dasharray="1,5" points="927,-70 927,-138 1077,-138 1077,-70 927,-70"/>
</g>
<g id="clust30" class="cluster">
<title>cluster_FilesModule_providers</title>
<polygon fill="none" stroke="black" points="935,-78 935,-130 1069,-130 1069,-78 935,-78"/>
</g>
<g id="clust31" class="cluster">
<title>cluster_JobsModule</title>
<polygon fill="none" stroke="black" stroke-dasharray="1,5" points="2295,-222 2295,-290 2551,-290 2551,-222 2295,-222"/>
</g>
<g id="clust34" class="cluster">
<title>cluster_JobsModule_exports</title>
<polygon fill="none" stroke="black" points="2441,-230 2441,-282 2543,-282 2543,-230 2441,-230"/>
</g>
<g id="clust36" class="cluster">
<title>cluster_JobsModule_providers</title>
<polygon fill="none" stroke="black" points="2303,-230 2303,-282 2433,-282 2433,-230 2303,-230"/>
</g>
<g id="clust37" class="cluster">
<title>cluster_MailModule</title>
<polygon fill="none" stroke="black" stroke-dasharray="1,5" points="1085,-70 1085,-138 1233,-138 1233,-70 1085,-70"/>
</g>
<g id="clust42" class="cluster">
<title>cluster_MailModule_providers</title>
<polygon fill="none" stroke="black" points="1093,-78 1093,-130 1225,-130 1225,-78 1093,-78"/>
</g>
<g id="clust43" class="cluster">
<title>cluster_PermissionsModule</title>
<polygon fill="none" stroke="black" stroke-dasharray="1,5" points="2559,-222 2559,-290 2919,-290 2919,-222 2559,-222"/>
</g>
<g id="clust46" class="cluster">
<title>cluster_PermissionsModule_exports</title>
<polygon fill="none" stroke="black" points="2765,-230 2765,-282 2911,-282 2911,-230 2765,-230"/>
</g>
<g id="clust48" class="cluster">
<title>cluster_PermissionsModule_providers</title>
<polygon fill="none" stroke="black" points="2567,-230 2567,-282 2757,-282 2757,-230 2567,-230"/>
</g>
<g id="clust49" class="cluster">
<title>cluster_ResumesModule</title>
<polygon fill="none" stroke="black" stroke-dasharray="1,5" points="1241,-70 1241,-138 1423,-138 1423,-70 1241,-70"/>
</g>
<g id="clust54" class="cluster">
<title>cluster_ResumesModule_providers</title>
<polygon fill="none" stroke="black" points="1249,-78 1249,-130 1415,-130 1415,-78 1249,-78"/>
</g>
<g id="clust55" class="cluster">
<title>cluster_RolesModule</title>
<polygon fill="none" stroke="black" stroke-dasharray="1,5" points="2927,-222 2927,-290 3201,-290 3201,-222 2927,-222"/>
</g>
<g id="clust58" class="cluster">
<title>cluster_RolesModule_exports</title>
<polygon fill="none" stroke="black" points="3083,-230 3083,-282 3193,-282 3193,-230 3083,-230"/>
</g>
<g id="clust60" class="cluster">
<title>cluster_RolesModule_providers</title>
<polygon fill="none" stroke="black" points="2935,-230 2935,-282 3075,-282 3075,-230 2935,-230"/>
</g>
<g id="clust61" class="cluster">
<title>cluster_SubscribersModule</title>
<polygon fill="none" stroke="black" stroke-dasharray="1,5" points="1431,-70 1431,-138 1633,-138 1633,-70 1431,-70"/>
</g>
<g id="clust66" class="cluster">
<title>cluster_SubscribersModule_providers</title>
<polygon fill="none" stroke="black" points="1439,-78 1439,-130 1625,-130 1625,-78 1439,-78"/>
</g>
<g id="clust67" class="cluster">
<title>cluster_UsersModule</title>
<polygon fill="none" stroke="black" stroke-dasharray="1,5" points="3209,-222 3209,-290 3335,-290 3335,-222 3209,-222"/>
</g>
<g id="clust70" class="cluster">
<title>cluster_UsersModule_exports</title>
<polygon fill="none" stroke="black" points="3217,-230 3217,-282 3327,-282 3327,-230 3217,-230"/>
</g>
<!-- AuthModule -->
<g id="node1" class="node">
<title>AuthModule</title>
<polygon fill="#8dd3c7" stroke="black" points="801.55,-274 798.55,-278 777.55,-278 774.55,-274 714.45,-274 714.45,-238 801.55,-238 801.55,-274"/>
<text text-anchor="middle" x="758" y="-251.8" font-family="Times,serif" font-size="14.00">AuthModule</text>
</g>
<!-- AppModule -->
<g id="node12" class="node">
<title>AppModule</title>
<polygon fill="#8dd3c7" stroke="black" points="1205.66,-339 1202.66,-343 1181.66,-343 1178.66,-339 1122.34,-339 1122.34,-303 1205.66,-303 1205.66,-339"/>
<text text-anchor="middle" x="1164" y="-316.8" font-family="Times,serif" font-size="14.00">AppModule</text>
</g>
<!-- AuthModule&#45;&gt;AppModule -->
<g id="edge1" class="edge">
<title>AuthModule&#45;&gt;AppModule</title>
<path fill="none" stroke="black" d="M801.9,-265C900.53,-265 1131.11,-265 1131.11,-265 1131.11,-265 1131.11,-292.97 1131.11,-292.97"/>
<polygon fill="black" stroke="black" points="1127.61,-292.97 1131.11,-302.97 1134.61,-292.97 1127.61,-292.97"/>
</g>
<!-- AuthService  -->
<g id="node14" class="node">
<title>AuthService </title>
<polygon fill="#fb8072" stroke="black" points="535.98,-198 446.02,-198 446.02,-162 535.98,-162 535.98,-198"/>
<text text-anchor="middle" x="491" y="-175.8" font-family="Times,serif" font-size="14.00">AuthService </text>
</g>
<!-- AuthModule&#45;&gt;AuthService  -->
<g id="edge15" class="edge">
<title>AuthModule&#45;&gt;AuthService </title>
<path fill="none" stroke="black" stroke-dasharray="5,2" d="M714.37,-256C707.13,-256 701.92,-256 701.92,-256 701.92,-256 701.92,-180 701.92,-180 701.92,-180 545.99,-180 545.99,-180"/>
<polygon fill="black" stroke="black" points="545.99,-176.5 535.99,-180 545.99,-183.5 545.99,-176.5"/>
</g>
<!-- CompaniesModule -->
<g id="node2" class="node">
<title>CompaniesModule</title>
<polygon fill="#8dd3c7" stroke="black" points="1560.04,-198 1557.04,-202 1536.04,-202 1533.04,-198 1437.96,-198 1437.96,-162 1560.04,-162 1560.04,-198"/>
<text text-anchor="middle" x="1499" y="-175.8" font-family="Times,serif" font-size="14.00">CompaniesModule</text>
</g>
<!-- CompaniesModule&#45;&gt;AppModule -->
<g id="edge2" class="edge">
<title>CompaniesModule&#45;&gt;AppModule</title>
<path fill="none" stroke="black" d="M1499,-198.21C1499,-235.06 1499,-315 1499,-315 1499,-315 1215.75,-315 1215.75,-315"/>
<polygon fill="black" stroke="black" points="1215.75,-311.5 1205.75,-315 1215.75,-318.5 1215.75,-311.5"/>
</g>
<!-- CompaniesService  -->
<g id="node18" class="node">
<title>CompaniesService </title>
<polygon fill="#fb8072" stroke="black" points="2271.47,-274 2146.53,-274 2146.53,-238 2271.47,-238 2271.47,-274"/>
<text text-anchor="middle" x="2209" y="-251.8" font-family="Times,serif" font-size="14.00">CompaniesService </text>
</g>
<!-- CompaniesModule&#45;&gt;CompaniesService  -->
<g id="edge19" class="edge">
<title>CompaniesModule&#45;&gt;CompaniesService </title>
<path fill="none" stroke="black" stroke-dasharray="5,2" d="M1468.36,-198.06C1468.36,-209.44 1468.36,-222 1468.36,-222 1468.36,-222 2209,-222 2209,-222 2209,-222 2209,-227.81 2209,-227.81"/>
<polygon fill="black" stroke="black" points="2205.5,-227.81 2209,-237.81 2212.5,-227.81 2205.5,-227.81"/>
</g>
<!-- DatabasesModule -->
<g id="node3" class="node">
<title>DatabasesModule</title>
<polygon fill="#8dd3c7" stroke="black" points="940.29,-198 937.29,-202 916.29,-202 913.29,-198 823.71,-198 823.71,-162 940.29,-162 940.29,-198"/>
<text text-anchor="middle" x="882" y="-175.8" font-family="Times,serif" font-size="14.00">DatabasesModule</text>
</g>
<!-- DatabasesModule&#45;&gt;AppModule -->
<g id="edge3" class="edge">
<title>DatabasesModule&#45;&gt;AppModule</title>
<path fill="none" stroke="black" d="M882,-198.04C882,-235.45 882,-318 882,-318 882,-318 1112.09,-318 1112.09,-318"/>
<polygon fill="black" stroke="black" points="1112.09,-321.5 1122.09,-318 1112.09,-314.5 1112.09,-321.5"/>
</g>
<!-- FilesModule -->
<g id="node4" class="node">
<title>FilesModule</title>
<polygon fill="#8dd3c7" stroke="black" points="1045.27,-198 1042.27,-202 1021.27,-202 1018.27,-198 958.73,-198 958.73,-162 1045.27,-162 1045.27,-198"/>
<text text-anchor="middle" x="1002" y="-175.8" font-family="Times,serif" font-size="14.00">FilesModule</text>
</g>
<!-- FilesModule&#45;&gt;AppModule -->
<g id="edge4" class="edge">
<title>FilesModule&#45;&gt;AppModule</title>
<path fill="none" stroke="black" d="M1002,-198.21C1002,-234.21 1002,-311 1002,-311 1002,-311 1112.28,-311 1112.28,-311"/>
<polygon fill="black" stroke="black" points="1112.28,-314.5 1122.28,-311 1112.28,-307.5 1112.28,-314.5"/>
</g>
<!-- JobsModule -->
<g id="node5" class="node">
<title>JobsModule</title>
<polygon fill="#8dd3c7" stroke="black" points="1662.44,-198 1659.44,-202 1638.44,-202 1635.44,-198 1577.56,-198 1577.56,-162 1662.44,-162 1662.44,-198"/>
<text text-anchor="middle" x="1620" y="-175.8" font-family="Times,serif" font-size="14.00">JobsModule</text>
</g>
<!-- JobsModule&#45;&gt;AppModule -->
<g id="edge5" class="edge">
<title>JobsModule&#45;&gt;AppModule</title>
<path fill="none" stroke="black" d="M1641.11,-198.14C1641.11,-236.23 1641.11,-321 1641.11,-321 1641.11,-321 1215.92,-321 1215.92,-321"/>
<polygon fill="black" stroke="black" points="1215.92,-317.5 1205.92,-321 1215.92,-324.5 1215.92,-317.5"/>
</g>
<!-- JobsService  -->
<g id="node23" class="node">
<title>JobsService </title>
<polygon fill="#fb8072" stroke="black" points="2535.37,-274 2448.63,-274 2448.63,-238 2535.37,-238 2535.37,-274"/>
<text text-anchor="middle" x="2492" y="-251.8" font-family="Times,serif" font-size="14.00">JobsService </text>
</g>
<!-- JobsModule&#45;&gt;JobsService  -->
<g id="edge24" class="edge">
<title>JobsModule&#45;&gt;JobsService </title>
<path fill="none" stroke="black" stroke-dasharray="5,2" d="M1598.89,-198.19C1598.89,-206.28 1598.89,-214 1598.89,-214 1598.89,-214 2492,-214 2492,-214 2492,-214 2492,-227.94 2492,-227.94"/>
<polygon fill="black" stroke="black" points="2488.5,-227.94 2492,-237.94 2495.5,-227.94 2488.5,-227.94"/>
</g>
<!-- MailModule -->
<g id="node6" class="node">
<title>MailModule</title>
<polygon fill="#8dd3c7" stroke="black" points="1148.99,-198 1145.99,-202 1124.99,-202 1121.99,-198 1063.01,-198 1063.01,-162 1148.99,-162 1148.99,-198"/>
<text text-anchor="middle" x="1106" y="-175.8" font-family="Times,serif" font-size="14.00">MailModule</text>
</g>
<!-- MailModule&#45;&gt;AppModule -->
<g id="edge6" class="edge">
<title>MailModule&#45;&gt;AppModule</title>
<path fill="none" stroke="black" d="M1140.05,-198.14C1140.05,-198.14 1140.05,-292.93 1140.05,-292.93"/>
<polygon fill="black" stroke="black" points="1136.55,-292.92 1140.05,-302.93 1143.55,-292.93 1136.55,-292.92"/>
</g>
<!-- PermissionsModule -->
<g id="node7" class="node">
<title>PermissionsModule</title>
<polygon fill="#8dd3c7" stroke="black" points="1807.71,-198 1804.71,-202 1783.71,-202 1780.71,-198 1680.29,-198 1680.29,-162 1807.71,-162 1807.71,-198"/>
<text text-anchor="middle" x="1744" y="-175.8" font-family="Times,serif" font-size="14.00">PermissionsModule</text>
</g>
<!-- PermissionsModule&#45;&gt;AppModule -->
<g id="edge7" class="edge">
<title>PermissionsModule&#45;&gt;AppModule</title>
<path fill="none" stroke="black" d="M1775.8,-198.03C1775.8,-237.28 1775.8,-327 1775.8,-327 1775.8,-327 1216.05,-327 1216.05,-327"/>
<polygon fill="black" stroke="black" points="1216.05,-323.5 1206.05,-327 1216.05,-330.5 1216.05,-323.5"/>
</g>
<!-- PermissionsService  -->
<g id="node26" class="node">
<title>PermissionsService </title>
<polygon fill="#fb8072" stroke="black" points="2902.64,-274 2773.36,-274 2773.36,-238 2902.64,-238 2902.64,-274"/>
<text text-anchor="middle" x="2838" y="-251.8" font-family="Times,serif" font-size="14.00">PermissionsService </text>
</g>
<!-- PermissionsModule&#45;&gt;PermissionsService  -->
<g id="edge27" class="edge">
<title>PermissionsModule&#45;&gt;PermissionsService </title>
<path fill="none" stroke="black" stroke-dasharray="5,2" d="M1712.2,-198.06C1712.2,-202.49 1712.2,-206 1712.2,-206 1712.2,-206 2838,-206 2838,-206 2838,-206 2838,-227.95 2838,-227.95"/>
<polygon fill="black" stroke="black" points="2834.5,-227.95 2838,-237.95 2841.5,-227.95 2834.5,-227.95"/>
</g>
<!-- ResumesModule -->
<g id="node8" class="node">
<title>ResumesModule</title>
<polygon fill="#8dd3c7" stroke="black" points="1277.1,-198 1274.1,-202 1253.1,-202 1250.1,-198 1166.9,-198 1166.9,-162 1277.1,-162 1277.1,-198"/>
<text text-anchor="middle" x="1222" y="-175.8" font-family="Times,serif" font-size="14.00">ResumesModule</text>
</g>
<!-- ResumesModule&#45;&gt;AppModule -->
<g id="edge8" class="edge">
<title>ResumesModule&#45;&gt;AppModule</title>
<path fill="none" stroke="black" d="M1186.39,-198.14C1186.39,-198.14 1186.39,-292.93 1186.39,-292.93"/>
<polygon fill="black" stroke="black" points="1182.89,-292.92 1186.39,-302.93 1189.89,-292.93 1182.89,-292.92"/>
</g>
<!-- RolesModule -->
<g id="node9" class="node">
<title>RolesModule</title>
<polygon fill="#8dd3c7" stroke="black" points="1916.94,-198 1913.94,-202 1892.94,-202 1889.94,-198 1825.06,-198 1825.06,-162 1916.94,-162 1916.94,-198"/>
<text text-anchor="middle" x="1871" y="-175.8" font-family="Times,serif" font-size="14.00">RolesModule</text>
</g>
<!-- RolesModule&#45;&gt;AuthModule -->
<g id="edge13" class="edge">
<title>RolesModule&#45;&gt;AuthModule</title>
<path fill="none" stroke="black" d="M1855.76,-198.31C1855.76,-218.15 1855.76,-247 1855.76,-247 1855.76,-247 811.71,-247 811.71,-247"/>
<polygon fill="black" stroke="black" points="811.71,-243.5 801.71,-247 811.71,-250.5 811.71,-243.5"/>
</g>
<!-- RolesModule&#45;&gt;AppModule -->
<g id="edge9" class="edge">
<title>RolesModule&#45;&gt;AppModule</title>
<path fill="none" stroke="black" d="M1886.24,-198.27C1886.24,-239.06 1886.24,-334 1886.24,-334 1886.24,-334 1215.69,-334 1215.69,-334"/>
<polygon fill="black" stroke="black" points="1215.69,-330.5 1205.69,-334 1215.69,-337.5 1215.69,-330.5"/>
</g>
<!-- RolesService  -->
<g id="node29" class="node">
<title>RolesService </title>
<polygon fill="#fb8072" stroke="black" points="3184.86,-274 3091.14,-274 3091.14,-238 3184.86,-238 3184.86,-274"/>
<text text-anchor="middle" x="3138" y="-251.8" font-family="Times,serif" font-size="14.00">RolesService </text>
</g>
<!-- RolesModule&#45;&gt;RolesService  -->
<g id="edge30" class="edge">
<title>RolesModule&#45;&gt;RolesService </title>
<path fill="none" stroke="black" stroke-dasharray="5,2" d="M1916.84,-174C2143.99,-174 3138,-174 3138,-174 3138,-174 3138,-227.8 3138,-227.8"/>
<polygon fill="black" stroke="black" points="3134.5,-227.8 3138,-237.8 3141.5,-227.8 3134.5,-227.8"/>
</g>
<!-- SubscribersModule -->
<g id="node10" class="node">
<title>SubscribersModule</title>
<polygon fill="#8dd3c7" stroke="black" points="1419.36,-198 1416.36,-202 1395.36,-202 1392.36,-198 1294.64,-198 1294.64,-162 1419.36,-162 1419.36,-198"/>
<text text-anchor="middle" x="1357" y="-175.8" font-family="Times,serif" font-size="14.00">SubscribersModule</text>
</g>
<!-- SubscribersModule&#45;&gt;AppModule -->
<g id="edge10" class="edge">
<title>SubscribersModule&#45;&gt;AppModule</title>
<path fill="none" stroke="black" d="M1357,-198.21C1357,-233.77 1357,-309 1357,-309 1357,-309 1215.88,-309 1215.88,-309"/>
<polygon fill="black" stroke="black" points="1215.88,-305.5 1205.88,-309 1215.88,-312.5 1215.88,-305.5"/>
</g>
<!-- UsersModule -->
<g id="node11" class="node">
<title>UsersModule</title>
<polygon fill="#8dd3c7" stroke="black" points="805.92,-198 802.92,-202 781.92,-202 778.92,-198 714.08,-198 714.08,-162 805.92,-162 805.92,-198"/>
<text text-anchor="middle" x="760" y="-175.8" font-family="Times,serif" font-size="14.00">UsersModule</text>
</g>
<!-- UsersModule&#45;&gt;AuthModule -->
<g id="edge14" class="edge">
<title>UsersModule&#45;&gt;AuthModule</title>
<path fill="none" stroke="black" d="M772.61,-198.01C772.61,-198.01 772.61,-227.85 772.61,-227.85"/>
<polygon fill="black" stroke="black" points="769.11,-227.85 772.61,-237.85 776.11,-227.85 769.11,-227.85"/>
</g>
<!-- UsersModule&#45;&gt;AppModule -->
<g id="edge11" class="edge">
<title>UsersModule&#45;&gt;AppModule</title>
<path fill="none" stroke="black" d="M805.74,-180C811.14,-180 814.78,-180 814.78,-180 814.78,-180 814.78,-325 814.78,-325 814.78,-325 1112.22,-325 1112.22,-325"/>
<polygon fill="black" stroke="black" points="1112.22,-328.5 1122.22,-325 1112.22,-321.5 1112.22,-328.5"/>
</g>
<!-- UsersService  -->
<g id="node32" class="node">
<title>UsersService </title>
<polygon fill="#fb8072" stroke="black" points="3318.85,-274 3225.15,-274 3225.15,-238 3318.85,-238 3318.85,-274"/>
<text text-anchor="middle" x="3272" y="-251.8" font-family="Times,serif" font-size="14.00">UsersService </text>
</g>
<!-- UsersModule&#45;&gt;UsersService  -->
<g id="edge33" class="edge">
<title>UsersModule&#45;&gt;UsersService </title>
<path fill="none" stroke="black" stroke-dasharray="5,2" d="M787.19,-198.17C787.19,-200.45 787.19,-202 787.19,-202 787.19,-202 3272,-202 3272,-202 3272,-202 3272,-227.72 3272,-227.72"/>
<polygon fill="black" stroke="black" points="3268.5,-227.72 3272,-237.72 3275.5,-227.72 3268.5,-227.72"/>
</g>
<!-- AppService -->
<g id="node13" class="node">
<title>AppService</title>
<ellipse fill="#fdb462" stroke="black" cx="633" cy="-256" rx="56.74" ry="18"/>
<text text-anchor="middle" x="633" y="-251.8" font-family="Times,serif" font-size="14.00">AppService</text>
</g>
<!-- AppService&#45;&gt;AppModule -->
<g id="edge12" class="edge">
<title>AppService&#45;&gt;AppModule</title>
<path fill="none" stroke="black" d="M633,-274.01C633,-296.49 633,-332 633,-332 633,-332 1112.33,-332 1112.33,-332"/>
<polygon fill="black" stroke="black" points="1112.33,-335.5 1122.33,-332 1112.33,-328.5 1112.33,-335.5"/>
</g>
<!-- AuthService -->
<g id="node15" class="node">
<title>AuthService</title>
<ellipse fill="#fdb462" stroke="black" cx="363" cy="-180" rx="59.11" ry="18"/>
<text text-anchor="middle" x="363" y="-175.8" font-family="Times,serif" font-size="14.00">AuthService</text>
</g>
<!-- AuthService&#45;&gt;AuthModule -->
<g id="edge16" class="edge">
<title>AuthService&#45;&gt;AuthModule</title>
<path fill="none" stroke="black" d="M363,-198.18C363,-211.04 363,-226 363,-226 363,-226 758.03,-226 758.03,-226 758.03,-226 758.03,-227.86 758.03,-227.86"/>
<polygon fill="black" stroke="black" points="754.53,-227.86 758.03,-237.86 761.53,-227.86 754.53,-227.86"/>
</g>
<!-- JwtStrategy -->
<g id="node16" class="node">
<title>JwtStrategy</title>
<ellipse fill="#fdb462" stroke="black" cx="229" cy="-180" rx="56.76" ry="18"/>
<text text-anchor="middle" x="229" y="-175.8" font-family="Times,serif" font-size="14.00">JwtStrategy</text>
</g>
<!-- JwtStrategy&#45;&gt;AuthModule -->
<g id="edge17" class="edge">
<title>JwtStrategy&#45;&gt;AuthModule</title>
<path fill="none" stroke="black" d="M229,-198.05C229,-212.37 229,-230 229,-230 229,-230 743.45,-230 743.45,-230 743.45,-230 743.45,-230.79 743.45,-230.79"/>
<polygon fill="black" stroke="black" points="739.95,-227.94 743.45,-237.94 746.95,-227.94 739.95,-227.94"/>
</g>
<!-- LocalStrategy -->
<g id="node17" class="node">
<title>LocalStrategy</title>
<ellipse fill="#fdb462" stroke="black" cx="89" cy="-180" rx="65.41" ry="18"/>
<text text-anchor="middle" x="89" y="-175.8" font-family="Times,serif" font-size="14.00">LocalStrategy</text>
</g>
<!-- LocalStrategy&#45;&gt;AuthModule -->
<g id="edge18" class="edge">
<title>LocalStrategy&#45;&gt;AuthModule</title>
<path fill="none" stroke="black" d="M89,-198.28C89,-213.95 89,-234 89,-234 89,-234 728.87,-234 728.87,-234 728.87,-234 728.87,-234.38 728.87,-234.38"/>
<polygon fill="black" stroke="black" points="725.37,-227.83 728.87,-237.83 732.37,-227.83 725.37,-227.83"/>
</g>
<!-- CompaniesService -->
<g id="node19" class="node">
<title>CompaniesService</title>
<ellipse fill="#fdb462" stroke="black" cx="2040" cy="-256" rx="83.38" ry="18"/>
<text text-anchor="middle" x="2040" y="-251.8" font-family="Times,serif" font-size="14.00">CompaniesService</text>
</g>
<!-- CompaniesService&#45;&gt;CompaniesModule -->
<g id="edge20" class="edge">
<title>CompaniesService&#45;&gt;CompaniesModule</title>
<path fill="none" stroke="black" d="M1956.3,-256C1811.51,-256 1529.64,-256 1529.64,-256 1529.64,-256 1529.64,-208.01 1529.64,-208.01"/>
<polygon fill="black" stroke="black" points="1533.14,-208.01 1529.64,-198.01 1526.14,-208.01 1533.14,-208.01"/>
</g>
<!-- DatabasesService -->
<g id="node20" class="node">
<title>DatabasesService</title>
<ellipse fill="#fdb462" stroke="black" cx="824" cy="-104" rx="79.27" ry="18"/>
<text text-anchor="middle" x="824" y="-99.8" font-family="Times,serif" font-size="14.00">DatabasesService</text>
</g>
<!-- DatabasesService&#45;&gt;DatabasesModule -->
<g id="edge21" class="edge">
<title>DatabasesService&#45;&gt;DatabasesModule</title>
<path fill="none" stroke="black" d="M876.71,-117.59C876.71,-117.59 876.71,-151.96 876.71,-151.96"/>
<polygon fill="black" stroke="black" points="873.21,-151.96 876.71,-161.96 880.21,-151.96 873.21,-151.96"/>
</g>
<!-- UsersService -->
<g id="node21" class="node">
<title>UsersService</title>
<ellipse fill="#fdb462" stroke="black" cx="665" cy="-104" rx="61.95" ry="18"/>
<text text-anchor="middle" x="665" y="-99.8" font-family="Times,serif" font-size="14.00">UsersService</text>
</g>
<!-- UsersService&#45;&gt;DatabasesModule -->
<g id="edge22" class="edge">
<title>UsersService&#45;&gt;DatabasesModule</title>
<path fill="none" stroke="black" d="M722.75,-110.62C722.75,-121.51 722.75,-142 722.75,-142 722.75,-142 850.28,-142 850.28,-142 850.28,-142 850.28,-151.89 850.28,-151.89"/>
<polygon fill="black" stroke="black" points="846.78,-151.89 850.28,-161.89 853.78,-151.89 846.78,-151.89"/>
</g>
<!-- UsersService&#45;&gt;UsersModule -->
<g id="edge34" class="edge">
<title>UsersService&#45;&gt;UsersModule</title>
<path fill="none" stroke="black" d="M718.52,-113.32C718.52,-113.32 718.52,-151.89 718.52,-151.89"/>
<polygon fill="black" stroke="black" points="715.02,-151.89 718.52,-161.89 722.02,-151.89 715.02,-151.89"/>
</g>
<!-- FilesService -->
<g id="node22" class="node">
<title>FilesService</title>
<ellipse fill="#fdb462" stroke="black" cx="1002" cy="-104" rx="58.54" ry="18"/>
<text text-anchor="middle" x="1002" y="-99.8" font-family="Times,serif" font-size="14.00">FilesService</text>
</g>
<!-- FilesService&#45;&gt;FilesModule -->
<g id="edge23" class="edge">
<title>FilesService&#45;&gt;FilesModule</title>
<path fill="none" stroke="black" d="M1002,-122.01C1002,-122.01 1002,-151.85 1002,-151.85"/>
<polygon fill="black" stroke="black" points="998.5,-151.85 1002,-161.85 1005.5,-151.85 998.5,-151.85"/>
</g>
<!-- JobsService -->
<g id="node24" class="node">
<title>JobsService</title>
<ellipse fill="#fdb462" stroke="black" cx="2368" cy="-256" rx="57.32" ry="18"/>
<text text-anchor="middle" x="2368" y="-251.8" font-family="Times,serif" font-size="14.00">JobsService</text>
</g>
<!-- JobsService&#45;&gt;JobsModule -->
<g id="edge25" class="edge">
<title>JobsService&#45;&gt;JobsModule</title>
<path fill="none" stroke="black" d="M2368,-237.89C2368,-228.1 2368,-218 2368,-218 2368,-218 1620,-218 1620,-218 1620,-218 1620,-208.11 1620,-208.11"/>
<polygon fill="black" stroke="black" points="1623.5,-208.11 1620,-198.11 1616.5,-208.11 1623.5,-208.11"/>
</g>
<!-- MailService -->
<g id="node25" class="node">
<title>MailService</title>
<ellipse fill="#fdb462" stroke="black" cx="1159" cy="-104" rx="58.46" ry="18"/>
<text text-anchor="middle" x="1159" y="-99.8" font-family="Times,serif" font-size="14.00">MailService</text>
</g>
<!-- MailService&#45;&gt;MailModule -->
<g id="edge26" class="edge">
<title>MailService&#45;&gt;MailModule</title>
<path fill="none" stroke="black" d="M1124.88,-118.65C1124.88,-118.65 1124.88,-151.9 1124.88,-151.9"/>
<polygon fill="black" stroke="black" points="1121.38,-151.9 1124.88,-161.9 1128.38,-151.9 1121.38,-151.9"/>
</g>
<!-- PermissionsService -->
<g id="node27" class="node">
<title>PermissionsService</title>
<ellipse fill="#fdb462" stroke="black" cx="2662" cy="-256" rx="86.83" ry="18"/>
<text text-anchor="middle" x="2662" y="-251.8" font-family="Times,serif" font-size="14.00">PermissionsService</text>
</g>
<!-- PermissionsService&#45;&gt;PermissionsModule -->
<g id="edge28" class="edge">
<title>PermissionsService&#45;&gt;PermissionsModule</title>
<path fill="none" stroke="black" d="M2662,-237.82C2662,-224.96 2662,-210 2662,-210 2662,-210 1744,-210 1744,-210 1744,-210 1744,-208.14 1744,-208.14"/>
<polygon fill="black" stroke="black" points="1747.5,-208.14 1744,-198.14 1740.5,-208.14 1747.5,-208.14"/>
</g>
<!-- ResumesService -->
<g id="node28" class="node">
<title>ResumesService</title>
<ellipse fill="#fdb462" stroke="black" cx="1332" cy="-104" rx="74.71" ry="18"/>
<text text-anchor="middle" x="1332" y="-99.8" font-family="Times,serif" font-size="14.00">ResumesService</text>
</g>
<!-- ResumesService&#45;&gt;ResumesModule -->
<g id="edge29" class="edge">
<title>ResumesService&#45;&gt;ResumesModule</title>
<path fill="none" stroke="black" d="M1267.1,-113.02C1267.1,-113.02 1267.1,-151.74 1267.1,-151.74"/>
<polygon fill="black" stroke="black" points="1263.6,-151.74 1267.1,-161.74 1270.6,-151.74 1263.6,-151.74"/>
</g>
<!-- RolesService -->
<g id="node30" class="node">
<title>RolesService</title>
<ellipse fill="#fdb462" stroke="black" cx="3005" cy="-256" rx="61.97" ry="18"/>
<text text-anchor="middle" x="3005" y="-251.8" font-family="Times,serif" font-size="14.00">RolesService</text>
</g>
<!-- RolesService&#45;&gt;RolesModule -->
<g id="edge31" class="edge">
<title>RolesService&#45;&gt;RolesModule</title>
<path fill="none" stroke="black" d="M3005,-237.97C3005,-217.23 3005,-186 3005,-186 3005,-186 1926.86,-186 1926.86,-186"/>
<polygon fill="black" stroke="black" points="1926.86,-182.5 1916.86,-186 1926.86,-189.5 1926.86,-182.5"/>
</g>
<!-- SubscribersService -->
<g id="node31" class="node">
<title>SubscribersService</title>
<ellipse fill="#fdb462" stroke="black" cx="1532" cy="-104" rx="85.09" ry="18"/>
<text text-anchor="middle" x="1532" y="-99.8" font-family="Times,serif" font-size="14.00">SubscribersService</text>
</g>
<!-- SubscribersService&#45;&gt;SubscribersModule -->
<g id="edge32" class="edge">
<title>SubscribersService&#45;&gt;SubscribersModule</title>
<path fill="none" stroke="black" d="M1446.89,-104C1427.83,-104 1413.14,-104 1413.14,-104 1413.14,-104 1413.14,-151.99 1413.14,-151.99"/>
<polygon fill="black" stroke="black" points="1409.64,-151.99 1413.14,-161.99 1416.64,-151.99 1409.64,-151.99"/>
</g>
</g>
</svg>
